<?xml version="1.0" standalone="no"?>
<!DOCTYPE svg PUBLIC "-//W3C//DTD SVG 20010904//EN"
 "http://www.w3.org/TR/2001/REC-SVG-20010904/DTD/svg10.dtd">
<svg version="1.0" xmlns="http://www.w3.org/2000/svg"
 width="512.000000pt" height="512.000000pt" viewBox="0 0 512.000000 512.000000"
 preserveAspectRatio="xMidYMid meet">

<g transform="translate(0.000000,512.000000) scale(0.100000,-0.100000)"
fill="#000000" stroke="none">
<path d="M3975 4966 c-341 -85 -1110 -274 -1710 -421 -2199 -540 -2084 -510
-2109 -535 -14 -12 -27 -32 -30 -45 -3 -13 26 -153 69 -330 l75 -307 0 -1447
c0 -943 4 -1467 10 -1502 33 -175 170 -318 347 -364 50 -13 311 -15 2008 -15
1720 0 1958 2 2010 15 178 47 314 195 345 375 7 46 10 494 8 1527 l-3 1463
-28 27 -27 28 -1858 5 c-1076 3 -1842 9 -1822 14 35 8 303 74 1350 331 300 74
914 224 1365 335 504 123 830 207 845 219 59 43 59 41 -30 402 -77 307 -84
331 -112 354 -16 14 -42 25 -56 24 -15 0 -306 -69 -647 -153z m592 -163 c12
-49 21 -89 20 -90 -5 -4 -208 126 -208 133 0 9 110 41 146 43 18 1 24 -11 42
-86z m-233 -175 l251 -153 -213 -51 -212 -52 -243 146 c-134 81 -245 151 -247
156 -5 8 350 102 394 105 10 1 132 -68 270 -151z m-726 -159 c131 -78 243
-147 250 -154 11 -10 -46 -27 -285 -85 -164 -40 -302 -73 -308 -73 -7 0 -479
280 -503 299 -2 1 133 36 300 77 167 41 305 75 306 76 2 1 110 -63 240 -140z
m-886 -225 c134 -81 247 -150 251 -154 5 -4 -86 -31 -202 -59 l-210 -52 -252
152 c-138 84 -246 155 -238 158 26 9 384 99 396 100 7 1 122 -65 255 -145z
m-684 -185 l243 -147 -308 -75 -308 -76 -253 152 -252 152 307 76 c170 42 313
73 318 70 6 -3 119 -72 253 -152z m-910 -211 c153 -92 248 -154 240 -159 -7
-3 -101 -28 -209 -54 l-195 -49 -65 39 c-35 21 -149 91 -254 154 l-189 115
204 52 c113 29 207 53 210 53 3 1 119 -67 258 -151z m-598 -237 c72 -43 131
-83 131 -87 -1 -15 -212 -64 -216 -51 -2 7 -14 50 -25 97 -12 47 -23 93 -26
103 -3 9 -3 17 0 17 2 0 64 -35 136 -79z m705 -581 l210 -210 -220 0 -220 0
-210 210 -210 210 220 0 220 0 210 -210z m920 0 l210 -210 -320 0 -320 0 -210
210 -210 210 320 0 320 0 210 -210z m720 0 l210 -210 -220 0 -220 0 -210 210
-210 210 220 0 220 0 210 -210z m920 0 l210 -210 -315 0 -315 0 -210 210 -210
210 315 0 315 0 210 -210z m730 0 l210 -210 -220 0 -220 0 -210 210 -210 210
220 0 220 0 210 -210z m265 113 l0 -98 -90 90 c-49 49 -90 93 -90 97 0 5 41 8
90 8 l90 0 0 -97z m-4195 -203 l120 -120 -123 0 -122 0 0 120 c0 66 1 120 3
120 1 0 56 -54 122 -120z m4203 -1427 c-3 -1100 -3 -1108 -24 -1153 -25 -54
-72 -103 -128 -133 l-41 -22 -1949 -3 c-1305 -1 -1961 1 -1986 8 -64 17 -130
70 -164 130 l-31 55 -3 1113 -2 1112 2165 0 2165 0 -2 -1107z"/>
<path d="M753 2399 c-18 -5 -41 -22 -50 -36 -17 -25 -18 -89 -21 -931 -2 -619
1 -916 8 -943 8 -28 21 -46 43 -59 31 -20 65 -20 1893 -20 1301 0 1870 3 1892
11 66 23 62 -38 62 992 l0 933 -31 30 -30 29 -182 3 c-211 4 -250 -4 -280 -56
-17 -29 -18 -39 -8 -73 19 -64 44 -73 198 -77 l133 -4 0 -794 0 -794 -1747 2
-1748 3 -3 793 -2 792 1009 0 c555 0 1022 3 1040 6 108 22 108 176 0 198 -51
10 -2140 5 -2176 -5z"/>
<path d="M3529 2396 c-48 -15 -75 -72 -59 -121 15 -45 44 -65 96 -65 55 0 94
42 94 99 0 68 -62 109 -131 87z"/>
<path d="M2427 1936 c-57 -21 -103 -61 -126 -110 -21 -43 -22 -53 -19 -429 l3
-385 30 -44 c37 -53 120 -98 179 -98 55 1 78 12 404 199 189 109 292 175 316
201 80 89 72 219 -19 297 -24 21 -176 113 -337 206 -319 182 -350 193 -431
163z"/>
</g>
</svg>
